<svg width="21" height="21" viewBox="0 0 21 21" fill="none" xmlns="http://www.w3.org/2000/svg">
<path fill-rule="evenodd" clip-rule="evenodd" d="M8.61999 4.18727C9.246 3.0048 10.9399 3.00479 11.5659 4.18727L17.6819 15.7395C18.2695 16.8495 17.4648 18.186 16.2089 18.186H3.97706C2.7211 18.186 1.91643 16.8496 2.50408 15.7395L8.61999 4.18727ZM16.2089 16.5194L10.093 4.96708L3.97706 16.5194L16.2089 16.5194Z" fill="#991B1B"/>
<path d="M9.25964 9.01936C9.25964 8.55912 9.63273 8.18603 10.093 8.18603C10.5532 8.18603 10.9263 8.55912 10.9263 9.01936V12.3527C10.9263 12.8129 10.5532 13.186 10.093 13.186C9.63273 13.186 9.25964 12.8129 9.25964 12.3527V9.01936Z" fill="#991B1B"/>
<path d="M10.9263 14.8527C10.9263 15.3129 10.5532 15.686 10.093 15.686C9.63273 15.686 9.25964 15.3129 9.25964 14.8527C9.25964 14.3925 9.63273 14.0194 10.093 14.0194C10.5532 14.0194 10.9263 14.3925 10.9263 14.8527Z" fill="#991B1B"/>
</svg>
