<svg width="156" height="74" viewBox="0 0 156 74" fill="none" xmlns="http://www.w3.org/2000/svg">
<path d="M20.5649 58.6874C17.8535 58.6874 15.4094 58.2673 13.2326 57.4272C11.0558 56.5488 9.20362 55.2695 7.67605 53.5891C6.14848 51.8706 4.96461 49.7511 4.12444 47.2306C3.28428 44.6719 2.8642 41.6932 2.8642 38.2943C2.8642 34.9337 3.28428 31.9549 4.12444 29.358C4.96461 26.723 6.14848 24.5271 7.67605 22.7704C9.20362 20.9755 11.0558 19.6197 13.2326 18.7032C15.4094 17.7867 17.8535 17.3284 20.5649 17.3284C24.2693 17.3284 27.3244 18.0922 29.7304 19.6198C32.1363 21.1091 34.0649 23.4769 35.516 26.723L28.0119 30.6183C27.4772 28.9379 26.637 27.6013 25.4914 26.6084C24.3839 25.5773 22.7417 25.0617 20.5649 25.0617C18.0063 25.0617 15.944 25.9019 14.3783 27.5822C12.8507 29.2244 12.0869 31.6303 12.0869 34.8V41.2158C12.0869 44.3855 12.8507 46.8105 14.3783 48.4909C15.944 50.133 18.0063 50.9541 20.5649 50.9541C22.7035 50.9541 24.403 50.3812 25.6632 49.2356C26.9616 48.0517 27.9164 46.6387 28.5274 44.9965L35.6306 49.121C34.1412 52.1761 32.1745 54.5439 29.7304 56.2242C27.3244 57.8663 24.2693 58.6874 20.5649 58.6874ZM50.4309 58H41.7237V18.0158H60.6847C62.5178 18.0158 64.1791 18.3213 65.6684 18.9323C67.1578 19.5434 68.4181 20.4217 69.4492 21.5674C70.5185 22.6749 71.3396 24.0115 71.9124 25.5773C72.4852 27.143 72.7717 28.8807 72.7717 30.7901C72.7717 33.5016 72.1606 35.8693 70.9386 37.8933C69.7547 39.9174 67.9407 41.3877 65.4966 42.3042L73.3445 58H63.6635L56.6749 43.3353H50.4309V58ZM59.5963 36.003C60.8948 36.003 61.9068 35.6784 62.6324 35.0291C63.3962 34.3417 63.7781 33.3488 63.7781 32.0504V29.5299C63.7781 28.2314 63.3962 27.2576 62.6324 26.6084C61.9068 25.921 60.8948 25.5773 59.5963 25.5773H50.4309V36.003H59.5963ZM80.3233 58V18.0158H107.533V25.7491H89.0304V33.9407H104.898V41.6168H89.0304V50.2667H107.533V58H80.3233ZM131.788 25.7491V58H123.081V25.7491H112.255V18.0158H142.615V25.7491H131.788Z" fill="black"/>
<path d="M141 50.5C141 54.6421 144.358 58 148.5 58C152.642 58 156 54.6421 156 50.5C156 46.3579 152.642 43 148.5 43C144.358 43 141 46.3579 141 50.5Z" fill="#7AB800"/>
</svg>
